<?xml version="1.0" encoding="UTF-8"?> <!-- Creator: CorelDRAW X6 --> <svg xmlns="http://www.w3.org/2000/svg" xmlns:xlink="http://www.w3.org/1999/xlink" xml:space="preserve" width="755mm" height="251mm" style="shape-rendering:geometricPrecision; text-rendering:geometricPrecision; image-rendering:optimizeQuality; fill-rule:evenodd; clip-rule:evenodd" viewBox="0 0 75500 25100"> <defs> <style type="text/css"> <![CDATA[ .fil0 {fill:#595959} .fil1 {fill:#FECB14} ]]> </style> </defs> <g id="Слой_x0020_1"> <metadata id="CorelCorpID_0Corel-Layer"></metadata> <path class="fil0" d="M26073 8854l0 6983 1566 0 0 -5582 3738 0 0 5582 1579 0 0 -6983 -6882 0zm9622 3498c0,-1440 1023,-2311 2336,-2311 1313,0 2336,871 2336,2311 0,1440 -1023,2311 -2336,2311 -1313,0 -2336,-871 -2336,-2311zm6251 0c0,-2197 -1793,-3662 -3915,-3662 -2122,0 -3914,1465 -3914,3662 0,2197 1793,3662 3914,3662 2121,0 3915,-1465 3915,-3662zm2867 -3498l-935 5001c-76,379 -316,543 -682,543l-758 0 0 1440 833 0c1149,0 1919,-543 2147,-1781l707 -3788 2677 0 0 5569 1579 0 0 -6983 -5569 0zm7084 0l0 6983 1553 0 0 -2955 1061 0c240,2008 1844,3132 3788,3132 2109,0 3814,-1326 3814,-3662 0,-2336 -1705,-3662 -3814,-3662 -1831,0 -3359,998 -3725,2778l-1124 0 0 -2614 -1553 0zm4155 3498c0,-1440 770,-2311 2248,-2311 1478,0 2248,871 2248,2311 0,1440 -770,2311 -2248,2311 -1477,0 -2248,-871 -2248,-2311zm14446 -1793c-720,-1225 -1907,-1869 -3536,-1869 -2197,0 -3902,1402 -3902,3662 0,2260 1667,3662 3902,3662 1629,0 2816,-644 3536,-1869l-1225 -707c-530,758 -1225,1174 -2336,1174 -1364,0 -2311,-909 -2311,-2260 0,-1377 909,-2260 2311,-2260 1112,0 1806,417 2336,1174l1225 -707z"></path> <path class="fil1" d="M14804 5815l-826 4959c-20,118 -147,171 -257,128l-2481 -959c-307,-119 -410,-349 -368,-604l528 -3174c42,-254 214,-439 543,-452l2657 -103 6 0 6 0c114,1 210,91 191,205zm-7122 3571l4467 2308c106,55 118,192 43,285l-1674 2067c-207,256 -458,283 -688,164l-2858 -1477c-179,-93 -294,-247 -293,-462 0,-60 10,-125 29,-194l717 -2561c32,-115 151,-185 257,-130zm1195 7857l3580 -3530c85,-84 219,-52 284,48l1445 2232c179,277 127,524 -57,705l-2291 2259c-183,181 -431,230 -705,47l-2212 -1477c-99,-66 -128,-201 -43,-284zm7883 1280l-2277 -4483c-54,-107 17,-224 132,-256l2566 -700c317,-86 537,38 654,268l1457 2869c117,230 88,481 -169,687l-2078 1659c-93,74 -230,62 -284,-45zm3625 -7039l-4972 746c-118,18 -208,-87 -201,-206l146 -2656c18,-329 206,-498 461,-536l3181 -477c256,-38 485,68 598,377l919 2496c41,112 -14,238 -132,256z"></path> </g> </svg> 